<?xml version="1.0" standalone="no"?>
<!DOCTYPE svg PUBLIC "-//W3C//DTD SVG 20010904//EN"
 "http://www.w3.org/TR/2001/REC-SVG-20010904/DTD/svg10.dtd">
<svg version="1.0" xmlns="http://www.w3.org/2000/svg"
 width="512.000000pt" height="512.000000pt" viewBox="0 0 512.000000 512.000000"
 preserveAspectRatio="xMidYMid meet">
<g transform="translate(0.000000,512.000000) scale(0.100000,-0.100000)"
fill="#000000" stroke="none">
<path d="M2467 4904 c-1 -2 -25 -4 -52 -5 -91 -3 -270 -29 -382 -55 -38 -9
-75 -17 -83 -19 -55 -12 -233 -75 -330 -118 -281 -125 -489 -266 -705 -482
-145 -144 -158 -159 -244 -275 -174 -234 -327 -559 -387 -820 -18 -83 -36
-172 -40 -205 -3 -22 -7 -46 -9 -53 -9 -25 -19 -200 -20 -312 0 -337 65 -647
200 -950 270 -611 789 -1077 1429 -1285 94 -30 230 -64 289 -71 23 -3 53 -9
67 -13 14 -4 47 -9 74 -10 27 -2 70 -6 95 -10 25 -4 91 -6 146 -6 80 1 108 5
140 22 137 72 157 249 41 351 -46 40 -83 49 -237 56 -469 23 -911 218 -1252
554 -250 245 -426 554 -512 901 -42 170 -56 292 -55 476 0 117 2 148 16 250 7
55 6 51 28 150 151 694 685 1252 1376 1438 105 29 123 32 260 52 95 13 417 13
490 0 31 -5 149 -29 204 -40 104 -22 288 -91 411 -153 88 -45 253 -149 307
-195 l28 -23 -199 0 c-196 -1 -199 -1 -247 -28 -154 -85 -148 -297 10 -378 40
-21 52 -21 516 -21 460 0 476 0 515 21 51 26 90 67 110 115 13 32 15 102 15
508 -1 447 -2 473 -20 509 -24 47 -54 79 -96 102 -71 39 -181 24 -241 -33 -61
-58 -67 -83 -69 -284 -1 -99 -3 -183 -3 -188 -1 -4 -29 15 -63 42 -219 170
-535 327 -818 405 -77 21 -238 52 -318 62 -122 14 -377 26 -385 18z"/>
<path d="M2461 4027 c-62 -32 -101 -91 -109 -163 -4 -33 -7 -347 -6 -699 1
-500 4 -649 14 -680 10 -31 85 -111 359 -386 190 -191 364 -356 386 -368 46
-25 142 -27 186 -5 39 20 88 71 104 111 20 46 19 121 -1 169 -11 26 -112 135
-318 340 l-301 303 -1 613 c-1 451 -4 623 -13 650 -15 47 -68 102 -116 122
-54 23 -131 20 -184 -7z"/>
<path d="M4605 2754 c-86 -47 -132 -128 -122 -214 14 -113 94 -189 203 -191
166 -3 268 161 192 309 -36 71 -93 106 -176 109 -48 2 -76 -1 -97 -13z"/>
<path d="M4528 1955 c-2 -2 -19 -5 -38 -8 -154 -21 -223 -223 -117 -343 130
-149 366 -63 370 134 1 72 -30 134 -88 174 -34 23 -118 52 -127 43z"/>
<path d="M3995 1254 c-105 -38 -162 -154 -129 -264 56 -190 331 -197 398 -11
61 170 -100 335 -269 275z"/>
<path d="M3280 773 c-127 -65 -155 -228 -58 -330 146 -152 395 -27 364 182 -8
52 -62 126 -108 150 -18 9 -58 19 -88 22 -47 4 -63 0 -110 -24z"/>
</g>
</svg>
